<svg xmlns="http://www.w3.org/2000/svg" width="480" height="320"><defs><filter id="glow" x="-50%" y="-50%" width="200%" height="200%"><feGaussianBlur stdDeviation="3" result="blur"/><feMerge><feMergeNode in="blur"/><feMergeNode in="SourceGraphic"/></feMerge></filter><filter id="textglow" x="-50%" y="-50%" width="200%" height="200%"><feGaussianBlur stdDeviation="6" result="blur"/><feMerge><feMergeNode in="blur"/><feMergeNode in="blur"/><feMergeNode in="SourceGraphic"/></feMerge></filter><radialGradient id="nebula" cx="50%" cy="40%" r="60%"><stop offset="0%" stop-color="#1e1b4b" stop-opacity="0.3"/><stop offset="50%" stop-color="#0c0a2a" stop-opacity="0.15"/><stop offset="100%" stop-color="#06060f" stop-opacity="0"/></radialGradient></defs><rect width="480" height="320" fill="#06060f"/><rect width="480" height="320" fill="url(#nebula)"/><circle cx="468.9" cy="64.2" r="0.6" fill="white" opacity="0.41"/><circle cx="2.0" cy="244.5" r="1.2" fill="white" opacity="0.56"/><circle cx="402.0" cy="95.1" r="1.5" fill="white" opacity="0.60"/><circle cx="19.1" cy="255.9" r="0.9" fill="white" opacity="0.49"/><circle cx="60.1" cy="89.5" r="1.3" fill="white" opacity="0.45"/><circle cx="134.1" cy="38.9" r="1.7" fill="white" opacity="0.45"/><circle cx="6.1" cy="156.1" r="1.0" fill="white" opacity="0.51"/><circle cx="84.4" cy="243.2" r="1.7" fill="white" opacity="0.69"/><circle cx="60.4" cy="152.6" r="0.4" fill="white" opacity="0.72"/><circle cx="11.5" cy="240.0" r="1.5" fill="white" opacity="0.58"/><circle cx="274.0" cy="33.8" r="0.6" fill="white" opacity="0.72"/><circle cx="229.8" cy="96.3" r="1.0" fill="white" opacity="0.44"/><circle cx="1.6" cy="163.7" r="0.9" fill="white" opacity="0.42"/><circle cx="270.6" cy="3.6" r="0.7" fill="white" opacity="0.78"/><circle cx="143.7" cy="122.6" r="1.1" fill="white" opacity="0.82"/><circle cx="436.3" cy="176.9" r="1.5" fill="white" opacity="0.65"/><circle cx="428.6" cy="86.0" r="0.9" fill="white" opacity="0.10"/><circle cx="135.8" cy="85.4" r="1.0" fill="white" opacity="0.71"/><circle cx="420.1" cy="271.1" r="0.5" fill="white" opacity="0.35"/><circle cx="262.6" cy="226.6" r="0.9" fill="white" opacity="0.73"/><circle cx="25.2" cy="30.4" r="1.4" fill="white" opacity="0.70"/><circle cx="195.2" cy="159.6" r="0.6" fill="white" opacity="0.68"/><circle cx="34.0" cy="219.2" r="1.1" fill="white" opacity="0.32"/><circle cx="411.1" cy="134.0" r="1.6" fill="white" opacity="0.64"/><circle cx="410.8" cy="208.3" r="0.4" fill="white" opacity="0.49"/><circle cx="469.9" cy="145.3" r="1.8" fill="white" opacity="0.81"/><circle cx="430.3" cy="96.8" r="1.7" fill="white" opacity="0.17"/><circle cx="230.6" cy="50.1" r="0.6" fill="white" opacity="0.15"/><circle cx="219.1" cy="46.9" r="1.4" fill="white" opacity="0.79"/><circle cx="178.4" cy="10.9" r="1.5" fill="white" opacity="0.20"/><circle cx="473.9" cy="287.3" r="1.3" fill="white" opacity="0.22"/><circle cx="287.7" cy="250.2" r="0.4" fill="white" opacity="0.29"/><circle cx="363.2" cy="201.5" r="1.8" fill="white" opacity="0.53"/><circle cx="106.8" cy="91.3" r="1.2" fill="white" opacity="0.59"/><circle cx="477.9" cy="153.9" r="1.4" fill="white" opacity="0.13"/><circle cx="35.4" cy="204.5" r="0.4" fill="white" opacity="0.68"/><circle cx="23.4" cy="47.1" r="1.3" fill="white" opacity="0.48"/><circle cx="267.4" cy="313.0" r="0.4" fill="white" opacity="0.73"/><circle cx="449.3" cy="78.7" r="0.4" fill="white" opacity="0.59"/><circle cx="357.7" cy="218.5" r="0.8" fill="white" opacity="0.55"/><circle cx="376.6" cy="264.4" r="1.3" fill="white" opacity="0.60"/><circle cx="238.8" cy="244.2" r="0.9" fill="white" opacity="0.64"/><circle cx="340.9" cy="303.9" r="1.1" fill="white" opacity="0.64"/><circle cx="278.7" cy="64.8" r="0.3" fill="white" opacity="0.80"/><circle cx="121.2" cy="205.9" r="1.0" fill="white" opacity="0.41"/><circle cx="49.7" cy="190.3" r="1.7" fill="white" opacity="0.54"/><circle cx="383.2" cy="63.7" r="0.9" fill="white" opacity="0.82"/><circle cx="190.9" cy="89.0" r="0.9" fill="white" opacity="0.75"/><circle cx="315.2" cy="89.0" r="1.6" fill="white" opacity="0.31"/><circle cx="453.1" cy="0.9" r="1.1" fill="white" opacity="0.70"/><circle cx="265.3" cy="139.7" r="0.4" fill="white" opacity="0.39"/><circle cx="234.7" cy="58.5" r="0.5" fill="white" opacity="0.14"/><circle cx="329.9" cy="167.3" r="1.7" fill="white" opacity="0.57"/><circle cx="29.8" cy="291.0" r="0.7" fill="white" opacity="0.64"/><circle cx="294.1" cy="128.1" r="1.2" fill="white" opacity="0.10"/><circle cx="94.8" cy="309.8" r="0.9" fill="white" opacity="0.48"/><circle cx="435.8" cy="42.8" r="1.0" fill="white" opacity="0.73"/><circle cx="79.1" cy="143.2" r="0.3" fill="white" opacity="0.57"/><circle cx="101.1" cy="315.0" r="1.7" fill="white" opacity="0.39"/><circle cx="136.3" cy="64.8" r="1.8" fill="white" opacity="0.55"/><circle cx="180.6" cy="0.1" r="1.0" fill="white" opacity="0.19"/><circle cx="183.8" cy="37.5" r="1.7" fill="white" opacity="0.39"/><circle cx="261.2" cy="198.9" r="1.5" fill="white" opacity="0.50"/><circle cx="75.5" cy="16.7" r="1.3" fill="white" opacity="0.70"/><circle cx="57.2" cy="244.9" r="1.7" fill="white" opacity="0.63"/><circle cx="461.1" cy="302.2" r="1.5" fill="white" opacity="0.56"/><circle cx="286.5" cy="262.7" r="1.0" fill="white" opacity="0.44"/><circle cx="88.8" cy="32.8" r="0.9" fill="white" opacity="0.87"/><circle cx="332.3" cy="3.8" r="0.9" fill="white" opacity="0.38"/><circle cx="202.4" cy="86.3" r="0.7" fill="white" opacity="0.74"/><circle cx="188.0" cy="217.8" r="1.4" fill="white" opacity="0.63"/><circle cx="24.4" cy="148.1" r="0.4" fill="white" opacity="0.47"/><circle cx="472.7" cy="208.3" r="1.0" fill="white" opacity="0.76"/><circle cx="469.7" cy="114.4" r="0.6" fill="white" opacity="0.25"/><circle cx="4.0" cy="308.7" r="0.9" fill="white" opacity="0.41"/><circle cx="62.9" cy="204.4" r="0.6" fill="white" opacity="0.24"/><circle cx="407.4" cy="188.6" r="1.1" fill="white" opacity="0.50"/><circle cx="244.7" cy="278.8" r="1.8" fill="white" opacity="0.48"/><circle cx="202.4" cy="46.4" r="1.8" fill="white" opacity="0.88"/><circle cx="29.9" cy="219.8" r="1.1" fill="white" opacity="0.75"/><line x1="240.0" y1="122.0" x2="142.3" y2="81.4" stroke="#3b82f6" stroke-opacity="0.65" stroke-width="0.8"/><circle cx="240.0" cy="122.0" r="1.5" fill="#60a5fa" opacity="0.7" filter="url(#glow)"/><line x1="240.0" y1="122.0" x2="343.9" y2="89.4" stroke="#3b82f6" stroke-opacity="0.67" stroke-width="0.8"/><circle cx="240.0" cy="122.0" r="1.5" fill="#60a5fa" opacity="0.7" filter="url(#glow)"/><line x1="240.0" y1="122.0" x2="183.9" y2="197.4" stroke="#3b82f6" stroke-opacity="0.44" stroke-width="0.8"/><circle cx="240.0" cy="122.0" r="1.5" fill="#60a5fa" opacity="0.7" filter="url(#glow)"/><line x1="240.0" y1="122.0" x2="301.7" y2="207.1" stroke="#3b82f6" stroke-opacity="0.17" stroke-width="0.8"/><circle cx="240.0" cy="122.0" r="1.5" fill="#60a5fa" opacity="0.7" filter="url(#glow)"/><line x1="142.3" y1="81.4" x2="98.1" y2="159.3" stroke="#3b82f6" stroke-opacity="0.32" stroke-width="0.8"/><circle cx="137.8" cy="89.2" r="1.5" fill="#60a5fa" opacity="0.7" filter="url(#glow)"/><line x1="142.3" y1="81.4" x2="193.6" y2="54.1" stroke="#3b82f6" stroke-opacity="0.70" stroke-width="0.8"/><circle cx="147.4" cy="78.7" r="1.5" fill="#60a5fa" opacity="0.7" filter="url(#glow)"/><line x1="343.9" y1="89.4" x2="374.8" y2="172.4" stroke="#3b82f6" stroke-opacity="0.70" stroke-width="0.8"/><circle cx="350.1" cy="106.0" r="1.5" fill="#60a5fa" opacity="0.7" filter="url(#glow)"/><line x1="343.9" y1="89.4" x2="193.6" y2="54.1" stroke="#3b82f6" stroke-opacity="0.52" stroke-width="0.8"/><circle cx="313.9" cy="82.3" r="1.5" fill="#60a5fa" opacity="0.7" filter="url(#glow)"/><line x1="183.9" y1="197.4" x2="98.1" y2="159.3" stroke="#3b82f6" stroke-opacity="0.70" stroke-width="0.8"/><circle cx="158.1" cy="185.9" r="1.5" fill="#60a5fa" opacity="0.7" filter="url(#glow)"/><line x1="183.9" y1="197.4" x2="275.6" y2="262.7" stroke="#3b82f6" stroke-opacity="0.10" stroke-width="0.8"/><circle cx="211.4" cy="217.0" r="1.5" fill="#60a5fa" opacity="0.7" filter="url(#glow)"/><line x1="301.7" y1="207.1" x2="374.8" y2="172.4" stroke="#3b82f6" stroke-opacity="0.24" stroke-width="0.8"/><circle cx="330.9" cy="193.2" r="1.5" fill="#60a5fa" opacity="0.7" filter="url(#glow)"/><line x1="301.7" y1="207.1" x2="275.6" y2="262.7" stroke="#3b82f6" stroke-opacity="0.24" stroke-width="0.8"/><circle cx="291.2" cy="229.3" r="1.5" fill="#60a5fa" opacity="0.7" filter="url(#glow)"/><line x1="98.1" y1="159.3" x2="60.1" y2="238.9" stroke="#3b82f6" stroke-opacity="0.70" stroke-width="0.8"/><circle cx="79.1" cy="199.1" r="1.5" fill="#60a5fa" opacity="0.7" filter="url(#glow)"/><line x1="374.8" y1="172.4" x2="425.3" y2="245.4" stroke="#3b82f6" stroke-opacity="0.31" stroke-width="0.8"/><circle cx="405.1" cy="216.2" r="1.5" fill="#60a5fa" opacity="0.7" filter="url(#glow)"/><line x1="275.6" y1="262.7" x2="128.4" y2="275.3" stroke="#3b82f6" stroke-opacity="0.44" stroke-width="0.8"/><circle cx="157.8" cy="272.8" r="1.5" fill="#60a5fa" opacity="0.7" filter="url(#glow)"/><line x1="60.1" y1="238.9" x2="128.4" y2="275.3" stroke="#3b82f6" stroke-opacity="0.67" stroke-width="0.8"/><circle cx="121.6" cy="271.6" r="1.5" fill="#60a5fa" opacity="0.7" filter="url(#glow)"/><line x1="183.9" y1="197.4" x2="60.1" y2="238.9" stroke="#3b82f6" stroke-opacity="0.24" stroke-width="0.8"/><circle cx="146.8" cy="209.8" r="1.5" fill="#60a5fa" opacity="0.7" filter="url(#glow)"/><line x1="301.7" y1="207.1" x2="425.3" y2="245.4" stroke="#3b82f6" stroke-opacity="0.70" stroke-width="0.8"/><circle cx="351.1" cy="222.5" r="1.5" fill="#60a5fa" opacity="0.7" filter="url(#glow)"/><circle cx="240.0" cy="122.0" r="15.0" fill="#3b82f6" opacity="0.15"/><circle cx="240.0" cy="122.0" r="6" fill="#3b82f6" filter="url(#glow)"/><circle cx="142.3" cy="81.4" r="10.0" fill="#06b6d4" opacity="0.15"/><circle cx="142.3" cy="81.4" r="4" fill="#06b6d4" filter="url(#glow)"/><circle cx="343.9" cy="89.4" r="10.0" fill="#818cf8" opacity="0.15"/><circle cx="343.9" cy="89.4" r="4" fill="#818cf8" filter="url(#glow)"/><circle cx="183.9" cy="197.4" r="12.5" fill="#2dd4bf" opacity="0.15"/><circle cx="183.9" cy="197.4" r="5" fill="#2dd4bf" filter="url(#glow)"/><circle cx="301.7" cy="207.1" r="12.5" fill="#a78bfa" opacity="0.15"/><circle cx="301.7" cy="207.1" r="5" fill="#a78bfa" filter="url(#glow)"/><circle cx="98.1" cy="159.3" r="7.5" fill="#38bdf8" opacity="0.15"/><circle cx="98.1" cy="159.3" r="3" fill="#38bdf8" filter="url(#glow)"/><circle cx="374.8" cy="172.4" r="7.5" fill="#c084fc" opacity="0.15"/><circle cx="374.8" cy="172.4" r="3" fill="#c084fc" filter="url(#glow)"/><circle cx="193.6" cy="54.1" r="7.5" fill="#22d3ee" opacity="0.15"/><circle cx="193.6" cy="54.1" r="3" fill="#22d3ee" filter="url(#glow)"/><circle cx="275.6" cy="262.7" r="7.5" fill="#6366f1" opacity="0.15"/><circle cx="275.6" cy="262.7" r="3" fill="#6366f1" filter="url(#glow)"/><circle cx="60.1" cy="238.9" r="5.0" fill="#0ea5e9" opacity="0.15"/><circle cx="60.1" cy="238.9" r="2" fill="#0ea5e9" filter="url(#glow)"/><circle cx="425.3" cy="245.4" r="5.0" fill="#8b5cf6" opacity="0.15"/><circle cx="425.3" cy="245.4" r="2" fill="#8b5cf6" filter="url(#glow)"/><circle cx="128.4" cy="275.3" r="5.0" fill="#14b8a6" opacity="0.15"/><circle cx="128.4" cy="275.3" r="2" fill="#14b8a6" filter="url(#glow)"/><ellipse cx="240.0" cy="122.0" rx="45" ry="18" fill="none" stroke="#3b82f6" stroke-opacity="0.2" stroke-width="0.5" transform="rotate(0.0 240.0 122.0)"/><ellipse cx="240.0" cy="122.0" rx="55" ry="22" fill="none" stroke="#818cf8" stroke-opacity="0.15" stroke-width="0.5" transform="rotate(60.0 240.0 122.0)"/><text x="240" y="280" text-anchor="middle" font-family="'Segoe UI', 'Helvetica Neue', Arial, sans-serif" font-size="32" font-weight="300" fill="#e0e7ff" letter-spacing="8" filter="url(#textglow)">RuFlo</text><text x="240" y="300" text-anchor="middle" font-family="'Segoe UI', 'Helvetica Neue', Arial, sans-serif" font-size="9" fill="#94a3b8" letter-spacing="3" opacity="0.7">INTELLIGENT WORKFLOWS</text></svg>